<?xml version="1.0" encoding="utf-8"?>
<!-- Generator: Adobe Illustrator 13.0.0, SVG Export Plug-In . SVG Version: 6.00 Build 14948)  -->
<!DOCTYPE svg PUBLIC "-//W3C//DTD SVG 1.1//EN" "http://www.w3.org/Graphics/SVG/1.1/DTD/svg11.dtd">
<svg version="1.1" id="Layer_1" xmlns="http://www.w3.org/2000/svg" xmlns:xlink="http://www.w3.org/1999/xlink" x="0px" y="0px"
	 width="572.451px" height="567.647px" viewBox="0 0 572.451 567.647" enable-background="new 0 0 572.451 567.647"
	 xml:space="preserve">
<g>
	<polyline fill="#FFFFFF" points="133.321,404.009 0,142.223 0,442.983 133.321,404.009 	"/>
	<polyline fill="#FFFFFF" points="174.187,174.187 174.187,393.46 398.265,393.46 398.265,174.187 174.187,174.187 	"/>
	<polyline fill="#FFFFFF" points="132.386,131.872 12.185,96.733 96.765,12.153 132.386,131.872 	"/>
	<polyline fill="#FFFFFF" points="124.687,0 164.294,133.117 429.81,0 124.687,0 	"/>
	<polyline fill="#FFFFFF" points="572.451,425.424 439.375,164.119 572.451,124.682 572.451,425.424 	"/>
	<polyline fill="#FFFFFF" points="96.765,555.495 132.386,435.775 12.185,470.914 96.765,555.495 	"/>
	<polyline fill="#FFFFFF" points="475.693,555.487 440.231,435.824 560.267,470.914 475.693,555.487 	"/>
	<polyline fill="#FFFFFF" points="210.114,143.959 439.087,29.164 404.931,143.959 210.114,143.959 	"/>
	<polyline fill="#FFFFFF" points="428.492,400.899 428.492,209.359 543.102,434.403 428.492,400.899 	"/>
	<polyline fill="#FFFFFF" points="447.77,567.647 408.3,434.459 142.641,567.647 447.77,567.647 	"/>
	<polyline fill="#FFFFFF" points="362.338,423.688 133.364,538.484 167.521,423.688 362.338,423.688 	"/>
	<polyline fill="#FFFFFF" points="143.959,166.749 143.959,358.289 29.35,133.245 143.959,166.749 	"/>
	<polyline fill="#FFFFFF" points="475.687,12.153 439.897,132.436 560.291,96.758 475.687,12.153 	"/>
</g>
</svg>
