<?xml version="1.0" encoding="iso-8859-1"?>
<!-- Generator: Adobe Illustrator 19.0.0, SVG Export Plug-In . SVG Version: 6.00 Build 0)  -->
<svg version="1.1" id="Layer_1" xmlns="http://www.w3.org/2000/svg" xmlns:xlink="http://www.w3.org/1999/xlink" x="0px" y="0px"
	 viewBox="0 0 480 480" style="enable-background:new 0 0 480 480;" xml:space="preserve">
<g transform="translate(0 -540.36)">
	<path style="fill:#BDC3C7;" d="M83.077,584.752h308.423c8.864,0,16,7.136,16,16v29.071c0,8.864-7.136,16-16,16H83.077
		c-8.864,0-16-7.136-16-16v-29.071C67.077,591.888,74.213,584.752,83.077,584.752z"/>
	<path style="fill:#A5D3D1;" d="M34.309,715.625h411.299V955.4H34.309L34.309,715.625z"/>
	<path style="fill:#90B5B3;" d="M34.31,715.626v42.738c0.752,0.046,1.508,0.078,2.273,0.078c18.98,0,34.262-14.343,34.262-32.156
		c0,17.813,15.277,32.156,34.258,32.156s34.262-14.343,34.262-32.156c0,17.813,15.279,32.156,34.26,32.156
		s34.262-14.343,34.262-32.156c0,17.813,15.281,32.156,34.262,32.156s34.26-14.343,34.26-32.156
		c0,17.813,15.281,32.156,34.262,32.156s34.262-14.343,34.262-32.156c0,17.813,15.277,32.156,34.258,32.156
		c18.98,0,34.262-14.343,34.262-32.156c0,17.15,14.165,31.078,32.158,32.092v-42.752H34.31L34.31,715.626z"/>
	<g>
		<path style="fill:#ECF0F1;" d="M0,693.795l480,0.247l-72.541-63.692l-340.383-0.894L0,693.795z"/>
		<g>
			<path style="fill:#E74C3C;" d="M69.105,693.773l50.63-64.451l49.553,0.316l-31.958,64.293L69.105,693.773z"/>
			<path style="fill:#E74C3C;" d="M217.962,629.816l46.928,0.099l9.455,63.912l-68.511-0.044L217.962,629.816z"/>
			<path style="fill:#E74C3C;" d="M315.304,630.16l27.643,63.648l68.629,0.373l-47.311-64.227L315.304,630.16z"/>
		</g>
	</g>
	<path style="fill:#BDC3C7;" d="M0.267,693.773v29.545c0,17.813,15.28,32.154,34.261,32.154s34.261-14.341,34.261-32.154v-29.545
		C68.789,693.773,0.267,693.773,0.267,693.773z"/>
	<path style="fill:#C0392B;" d="M68.789,693.773v29.545c0,17.813,15.28,32.154,34.261,32.154s34.261-14.341,34.261-32.154v-29.545
		H68.789z"/>
	<path style="fill:#BDC3C7;" d="M137.31,693.773v29.545c0,17.813,15.28,32.154,34.261,32.154s34.261-14.341,34.261-32.154v-29.545
		H137.31z"/>
	<path style="fill:#C0392B;" d="M205.832,693.773v29.545c0,17.813,15.28,32.154,34.261,32.154s34.261-14.341,34.261-32.154v-29.545
		H205.832L205.832,693.773z"/>
	<path style="fill:#BDC3C7;" d="M274.353,693.773v29.545c0,17.813,15.28,32.154,34.261,32.154s34.261-14.341,34.261-32.154v-29.545
		H274.353L274.353,693.773z"/>
	<path style="fill:#C0392B;" d="M342.875,693.773v29.545c0,17.813,15.28,32.154,34.261,32.154s34.261-14.341,34.261-32.154v-29.545
		H342.875L342.875,693.773z"/>
	<path style="fill:#BDC3C7;" d="M411.396,693.773v29.545c0,17.813,15.28,32.154,34.261,32.154s34.261-14.341,34.261-32.154v-29.545
		H411.396z"/>
	<path style="fill:#7F8C8D;" d="M6.856,955.4h466.206v20.568H6.856L6.856,955.4z"/>
	<path style="fill:#935643;" d="M97.589,811.425h84.14V955.4h-84.14L97.589,811.425z"/>
	<path style="fill:#764536;" d="M91.667,795.375h95.984v16.454H91.667L91.667,795.375z"/>
	<path style="fill:#825142;" d="M97.589,811.829v3.43h84.141v-3.43H97.589z"/>
	<g shape-rendering="auto" image-rendering="auto" color-rendering="auto" color-interpolation="sRGB">
		<path style="fill:#6E7374;" d="M240.343,795.375v1.596v85.127h147.908v-86.723H240.343z"/>
		<path style="fill:#B3C7D6;" d="M243.534,798.566h141.523v80.34H243.534V798.566z"/>
	</g>
	<path style="fill:#C2D2DE;" d="M247.259,801.493h134.076v74.486H247.259V801.493z"/>
	<g>
		<path style="fill:#6E7374;" d="M386.655,836.608v4.256H241.938v-4.256H386.655z"/>
		<path style="fill:#6E7374;" d="M312.168,796.971h4.256v83.531h-4.256V796.971z"/>
	</g>
	<g shape-rendering="auto" image-rendering="auto" color-rendering="auto" color-interpolation="sRGB">
		<path style="fill:#FFFFFF;" d="M172.25,876.542l-1.277,1.277l11.921,11.921l1.277-1.277L172.25,876.542L172.25,876.542z"/>
		<path style="fill:#FFFFFF;" d="M167.495,876.542l-11.921,11.921l1.277,1.277l11.921-11.921L167.495,876.542z"/>
	</g>
	<path style="fill:#E74C3C;" d="M149.636,888.724l38.875-2.718c0.866-0.061,1.612,0.588,1.673,1.454l1.379,19.722
		c0.061,0.866-0.588,1.612-1.454,1.673l-38.875,2.718c-0.866,0.061-1.612-0.588-1.673-1.454l-1.379-19.722
		C148.121,889.531,148.77,888.785,149.636,888.724L149.636,888.724z"/>
	<g>
		<path style="fill:#B93D30;" d="M157.644,904.577c-1.266,0.089-2.329-0.259-3.188-1.043c-0.855-0.784-1.331-1.88-1.43-3.287
			c-0.094-1.346,0.209-2.483,0.908-3.411c0.704-0.933,1.733-1.447,3.087-1.542c1.253-0.088,2.302,0.254,3.147,1.026
			c0.849,0.771,1.322,1.847,1.419,3.228c0.1,1.429-0.218,2.603-0.954,3.52C159.898,903.987,158.902,904.489,157.644,904.577
			L157.644,904.577z M157.488,902.533c0.466-0.033,0.786-0.258,0.96-0.677c0.178-0.423,0.229-1.176,0.154-2.258
			c-0.109-1.565-0.584-2.319-1.424-2.26c-0.906,0.063-1.296,0.988-1.172,2.773C156.123,901.787,156.617,902.594,157.488,902.533
			L157.488,902.533z"/>
		<path style="fill:#B93D30;" d="M165.567,900.596l0.229,3.272l-2.803,0.196l-0.63-9.004l3.846-0.269
			c0.959-0.067,1.694-0.008,2.206,0.177c0.517,0.185,0.936,0.494,1.258,0.926c0.326,0.432,0.509,0.93,0.548,1.493
			c0.06,0.857-0.191,1.571-0.752,2.141c-0.561,0.57-1.341,0.889-2.339,0.959L165.567,900.596L165.567,900.596z M165.392,898.666
			l0.923-0.065c0.814-0.057,1.199-0.384,1.158-0.982c-0.039-0.563-0.435-0.818-1.187-0.765l-1.016,0.071L165.392,898.666
			L165.392,898.666z"/>
		<path style="fill:#B93D30;" d="M178.207,900.839l0.15,2.15l-6.774,0.474l-0.63-9.004l6.774-0.474l0.145,2.078l-4.063,0.284
			l0.091,1.306l3.285-0.23l0.14,1.999l-3.285,0.23l0.103,1.471L178.207,900.839L178.207,900.839z"/>
		<path style="fill:#B93D30;" d="M187.053,902.382l-2.249,0.157l-2.745-3.805c-0.352-0.488-0.714-1.086-1.087-1.793
			c0.186,0.57,0.293,1.058,0.321,1.462l0.305,4.36l-2.243,0.157l-0.63-9.004l2.612-0.183l2.328,3.151
			c0.464,0.626,0.82,1.18,1.071,1.662c-0.195-0.76-0.32-1.542-0.376-2.347l-0.186-2.665l2.249-0.157L187.053,902.382
			L187.053,902.382z"/>
	</g>
	<g>
		<path style="fill:#FFFFFF;" d="M157.499,904.318c-1.266,0.089-2.329-0.259-3.188-1.043c-0.855-0.784-1.331-1.88-1.43-3.287
			c-0.094-1.346,0.209-2.482,0.908-3.411c0.704-0.933,1.733-1.447,3.087-1.542c1.253-0.088,2.302,0.254,3.147,1.026
			c0.849,0.771,1.322,1.847,1.419,3.228c0.1,1.429-0.218,2.603-0.954,3.52S158.757,904.23,157.499,904.318z M157.343,902.274
			c0.466-0.033,0.786-0.258,0.96-0.677c0.178-0.423,0.229-1.176,0.154-2.258c-0.109-1.565-0.584-2.319-1.424-2.26
			c-0.906,0.063-1.296,0.988-1.172,2.773C155.978,901.527,156.472,902.335,157.343,902.274L157.343,902.274z"/>
		<path style="fill:#FFFFFF;" d="M165.422,900.337l0.229,3.272l-2.803,0.196l-0.63-9.004l3.846-0.269
			c0.959-0.067,1.694-0.008,2.206,0.177c0.517,0.185,0.936,0.494,1.258,0.926c0.326,0.432,0.509,0.93,0.548,1.493
			c0.06,0.857-0.191,1.571-0.752,2.141c-0.561,0.57-1.341,0.889-2.339,0.959L165.422,900.337L165.422,900.337z M165.248,898.407
			l0.923-0.065c0.814-0.057,1.199-0.384,1.158-0.982c-0.039-0.563-0.435-0.818-1.187-0.765l-1.016,0.071L165.248,898.407
			L165.248,898.407z"/>
		<path style="fill:#FFFFFF;" d="M178.062,900.58l0.15,2.15l-6.774,0.474l-0.63-9.004l6.774-0.474l0.145,2.078l-4.063,0.284
			l0.091,1.306l3.285-0.23l0.14,1.999l-3.285,0.23l0.103,1.471L178.062,900.58L178.062,900.58z"/>
		<path style="fill:#FFFFFF;" d="M186.908,902.122l-2.249,0.157l-2.745-3.805c-0.352-0.488-0.714-1.086-1.087-1.793
			c0.186,0.57,0.293,1.058,0.321,1.462l0.305,4.36l-2.243,0.157l-0.63-9.004l2.612-0.183l2.328,3.151
			c0.464,0.626,0.82,1.18,1.071,1.662c-0.195-0.76-0.32-1.542-0.376-2.347l-0.186-2.665l2.249-0.157L186.908,902.122
			L186.908,902.122z"/>
	</g>
	<g>
		<path style="fill:#BFBFBF;" d="M172.249,876.542l-1.275,1.277l3.357,3.357c0.21-0.527,0.319-1.089,0.32-1.656
			c-0.002-0.209-0.018-0.418-0.049-0.625L172.249,876.542L172.249,876.542z"/>
		<path style="fill:#BFBFBF;" d="M167.495,876.542l-1.627,1.627c-0.138,0.437-0.209,0.893-0.209,1.352
			c0.001,0.418,0.06,0.833,0.176,1.234l2.936-2.936L167.495,876.542z"/>
	</g>
	<path style="fill:#6E4032;" d="M174.359,879.019c0,2.322-1.882,4.204-4.204,4.204c0,0,0,0,0,0c-2.322,0-4.204-1.882-4.204-4.204
		l0,0c0-2.322,1.882-4.204,4.204-4.204c0,0,0,0,0,0C172.477,874.815,174.359,876.697,174.359,879.019L174.359,879.019z"/>
</g>
<g>
</g>
<g>
</g>
<g>
</g>
<g>
</g>
<g>
</g>
<g>
</g>
<g>
</g>
<g>
</g>
<g>
</g>
<g>
</g>
<g>
</g>
<g>
</g>
<g>
</g>
<g>
</g>
<g>
</g>
</svg>
