<?xml version="1.0" encoding="utf-8"?>
<!-- Generator: Adobe Illustrator 13.0.0, SVG Export Plug-In . SVG Version: 6.00 Build 14948)  -->
<!DOCTYPE svg PUBLIC "-//W3C//DTD SVG 1.1//EN" "http://www.w3.org/Graphics/SVG/1.1/DTD/svg11.dtd">
<svg version="1.1" id="Layer_1" xmlns="http://www.w3.org/2000/svg" xmlns:xlink="http://www.w3.org/1999/xlink" x="0px" y="0px"
	 width="3228.561px" height="567.647px" viewBox="0 0 3228.561 567.647" enable-background="new 0 0 3228.561 567.647"
	 xml:space="preserve">
<g>
	<g>
		<polyline fill="#FFFFFF" points="133.321,404.009 0,142.223 0,442.983 133.321,404.009 		"/>
		<polyline fill="#FFFFFF" points="174.187,174.187 174.187,393.46 398.265,393.46 398.265,174.187 174.187,174.187 		"/>
		<polyline fill="#FFFFFF" points="132.386,131.872 12.185,96.733 96.765,12.153 132.386,131.872 		"/>
		<polyline fill="#FFFFFF" points="124.687,0 164.294,133.117 429.81,0 124.687,0 		"/>
		<polyline fill="#FFFFFF" points="572.451,425.424 439.375,164.119 572.451,124.682 572.451,425.424 		"/>
		<polyline fill="#FFFFFF" points="96.765,555.495 132.386,435.775 12.185,470.914 96.765,555.495 		"/>
		<polyline fill="#FFFFFF" points="475.693,555.487 440.231,435.824 560.267,470.914 475.693,555.487 		"/>
		<polyline fill="#FFFFFF" points="210.114,143.959 439.087,29.164 404.931,143.959 210.114,143.959 		"/>
		<polyline fill="#FFFFFF" points="428.492,400.899 428.492,209.359 543.102,434.403 428.492,400.899 		"/>
		<polyline fill="#FFFFFF" points="447.77,567.647 408.3,434.459 142.641,567.647 447.77,567.647 		"/>
		<polyline fill="#FFFFFF" points="362.338,423.688 133.364,538.484 167.521,423.688 362.338,423.688 		"/>
		<polyline fill="#FFFFFF" points="143.959,166.749 143.959,358.289 29.35,133.245 143.959,166.749 		"/>
		<polyline fill="#FFFFFF" points="475.687,12.153 439.897,132.436 560.291,96.758 475.687,12.153 		"/>
	</g>
	<path fill="#FFFFFF" d="M687.277,393.369V174.264h224.286v37.313H738.27v48.92h101.157v37.311H738.27v54.311h175.366v41.251
		H687.277z"/>
	<path fill="#FFFFFF" d="M990.351,393.369V174.264h41.25l103.23,132.458l100.95-132.458h40.835v219.105h-47.261v-135.36
		c0-2.624,0.171-5.939,0.518-9.949c0.344-4.007,0.793-8.5,1.347-13.475c-2.766,5.668-5.182,10.333-7.255,13.993
		c-2.073,3.663-3.938,6.669-5.596,9.017l-82.293,109.45h-10.158l-82.5-109.864c-3.042-4.146-5.632-8.049-7.773-11.712
		c-2.144-3.66-3.907-7.219-5.286-10.676c0.414,4.561,0.725,8.706,0.933,12.438c0.208,3.731,0.311,7.327,0.311,10.779v135.36H990.351
		z"/>
	<path fill="#FFFFFF" d="M1366.805,393.369V174.264h224.287v37.313h-173.294v48.92h101.158v37.311h-101.158v54.311h175.367v41.251
		H1366.805z"/>
	<path fill="#FFFFFF" d="M1670.293,393.369V174.264h187.39c17.411,0,30.021,3.352,37.829,10.054
		c7.806,6.705,11.712,17.515,11.712,32.44v51.408c0,14.79-3.906,25.568-11.712,32.337c-7.808,6.773-20.418,10.157-37.829,10.157
		h-28.605l101.156,82.709h-73.174l-88.304-82.709h-48.3v82.709H1670.293z M1835.087,212.198h-114.631v60.943h114.631
		c8.841,0,14.889-1.276,18.137-3.835c3.246-2.556,4.873-7.08,4.873-13.578v-26.326c0-6.354-1.627-10.812-4.873-13.371
		C1849.976,213.477,1843.928,212.198,1835.087,212.198z"/>
	<path fill="#FFFFFF" d="M1974.411,393.369l123.959-219.105h49.127l125.619,219.105h-57.214l-26.325-47.885h-138.884l-25.497,47.885
		H1974.411z M2072.458,305.892h95.975l-47.261-89.134L2072.458,305.892z"/>
	<path fill="#FFFFFF" d="M2368.276,174.264v177.854h145.311V174.264h50.785v167.282c0,20.039-3.732,33.686-11.193,40.939
		c-7.463,7.257-21.837,10.884-43.115,10.884h-138.471c-21.145,0-35.482-3.627-43.012-10.884c-7.534-7.254-11.297-20.9-11.297-40.939
		V174.264H2368.276z"/>
	<path fill="#FFFFFF" d="M2659.534,393.369V174.264h140.957c40.214,0,71.132,9.399,92.762,28.191
		c21.627,18.795,32.44,45.468,32.44,80.014c0,20.455-4.216,38.867-12.645,55.243c-8.432,16.376-20.313,29.263-35.653,38.659
		c-9.534,5.943-21.387,10.262-35.55,12.956c-14.168,2.695-32.305,4.042-54.414,4.042H2659.534z M2710.528,352.118h65.917
		c35.101,0,59.975-5.457,74.625-16.376c14.646-10.915,21.973-28.948,21.973-54.102c0-22.388-6.084-39.349-18.242-50.89
		c-12.163-11.536-30.129-17.308-53.894-17.308h-90.379V352.118z"/>
	<path fill="#FFFFFF" d="M3002.201,393.369V174.264h224.287v37.313h-173.295v48.92h101.156v37.311h-101.156v54.311h175.367v41.251
		H3002.201z"/>
</g>
</svg>
